<?xml version="1.0" standalone="no"?>
<!DOCTYPE svg PUBLIC "-//W3C//DTD SVG 20010904//EN"
 "http://www.w3.org/TR/2001/REC-SVG-20010904/DTD/svg10.dtd">
<svg version="1.0" xmlns="http://www.w3.org/2000/svg"
 width="1500.000000pt" height="1500.000000pt" viewBox="0 0 1500.000000 1500.000000"
 preserveAspectRatio="xMidYMid meet">
<metadata>
Created by potrace 1.14, written by Peter Selinger 2001-2017
</metadata>
<g transform="translate(0.000000,1500.000000) scale(0.100000,-0.100000)"
fill="#000000" stroke="none">
<path d="M1576 13073 c12 -10 58 -47 104 -83 103 -80 282 -258 390 -387 102
-121 280 -358 280 -371 0 -6 4 -12 8 -14 10 -4 110 -151 171 -252 41 -68 33
-71 -23 -8 -69 78 -229 188 -347 238 -56 23 -82 32 -149 48 -9 2 14 -26 51
-64 98 -99 177 -269 228 -490 20 -85 25 -111 36 -185 4 -22 8 -51 10 -65 2
-14 7 -47 11 -75 3 -27 8 -59 10 -70 2 -11 7 -36 10 -55 3 -19 17 -89 31 -155
13 -66 26 -129 29 -140 2 -11 18 -67 34 -125 17 -58 32 -112 34 -121 12 -49
104 -307 141 -395 32 -77 39 -102 27 -95 -9 5 -65 59 -124 120 -72 75 -105
104 -102 89 2 -13 7 -39 10 -58 3 -19 23 -105 44 -191 75 -302 179 -583 327
-879 107 -215 149 -289 266 -474 80 -127 252 -365 343 -476 196 -236 466 -515
639 -659 22 -18 59 -49 82 -69 l43 -35 -39 -46 c-174 -208 -332 -558 -386
-856 -32 -176 -39 -259 -39 -450 0 -245 13 -374 68 -640 71 -343 225 -702 419
-975 174 -244 409 -460 616 -565 l55 -27 -15 23 c-159 247 -304 617 -359 919
-6 30 -12 66 -15 80 -3 14 -8 45 -11 70 -3 25 -7 56 -9 70 -3 14 -7 56 -10 95
-4 38 -8 86 -11 105 -4 33 -5 347 -1 417 3 50 12 47 27 -10 27 -110 105 -309
182 -465 35 -72 188 -317 207 -332 3 -3 24 -27 46 -55 192 -239 481 -457 735
-552 l64 -25 -19 24 c-11 13 -22 25 -25 28 -12 12 -122 152 -181 230 -113 149
-268 392 -342 535 l-37 70 38 -45 c122 -149 288 -268 411 -295 l33 -7 -49 73
c-157 234 -242 462 -307 824 -9 48 -19 212 -20 305 0 89 12 294 19 320 2 8 6
38 10 65 8 70 42 231 59 285 l14 45 2 -95 c3 -175 9 -314 20 -425 60 -616 237
-1118 492 -1390 33 -36 74 -75 91 -87 l29 -21 -6 29 c-13 61 -16 81 -23 154
-9 101 -9 274 1 390 9 109 23 190 26 150 16 -220 131 -548 265 -755 60 -94
182 -245 197 -245 2 0 5 15 5 33 0 86 40 328 59 358 2 5 26 -8 52 -27 61 -47
187 -129 288 -186 110 -63 393 -205 425 -213 56 -14 337 119 574 273 182 118
411 290 560 421 27 24 86 76 130 115 140 123 409 399 458 468 137 194 209 393
219 606 l2 43 50 -57 c170 -190 354 -498 501 -839 31 -71 62 -143 70 -160 13
-31 99 -259 131 -352 19 -54 34 -69 34 -33 0 41 122 382 239 670 53 128 137
421 160 557 6 35 13 75 16 90 7 41 19 219 19 288 0 169 -28 376 -79 575 -25
102 -87 305 -105 345 -4 11 -21 54 -36 95 -76 209 -292 650 -354 725 -21 26
-5 17 56 -30 75 -59 204 -183 274 -266 30 -35 58 -66 61 -69 19 -16 142 -211
174 -275 22 -47 41 -73 47 -68 21 12 142 127 263 248 187 187 271 284 428 489
59 78 111 146 116 152 17 21 147 218 198 299 141 227 292 516 393 755 29 69
58 139 65 155 77 180 208 609 231 750 l6 39 -54 -53 c-48 -48 -240 -201 -251
-201 -3 0 15 35 39 77 24 43 44 81 44 85 0 5 9 27 19 51 43 95 122 359 136
452 3 22 10 56 15 75 4 19 12 60 15 90 4 30 9 62 10 70 4 23 26 170 31 203 2
16 6 36 8 46 3 9 8 32 11 51 3 19 10 53 16 75 5 22 12 51 15 65 3 14 25 86 50
160 49 149 122 307 177 390 20 30 35 55 33 57 -1 2 -28 -6 -60 -17 -132 -45
-247 -117 -353 -222 -29 -28 -53 -48 -53 -45 0 10 114 228 145 277 80 127 175
264 195 280 4 3 11 12 16 21 33 59 259 288 389 394 99 80 261 195 275 195 5 0
11 4 15 10 5 9 -9 8 -145 -5 -77 -8 -118 -14 -250 -36 -63 -11 -128 -22 -145
-24 -107 -16 -474 -118 -560 -156 -11 -5 -33 -13 -50 -19 -55 -20 -88 -34
-198 -88 -318 -154 -516 -321 -706 -595 -231 -334 -462 -627 -751 -952 -109
-123 -148 -165 -289 -313 -62 -65 -77 -73 -41 -21 48 67 152 313 175 414 l7
30 -24 -21 c-124 -111 -378 -309 -530 -412 -51 -35 -59 -38 -53 -19 18 55 29
464 15 554 -4 26 -11 82 -15 123 -4 41 -8 87 -10 102 -12 99 -19 273 -20 461
0 213 0 217 -18 195 -94 -118 -242 -271 -332 -343 -27 -22 -58 -48 -69 -57
-24 -22 -164 -118 -171 -118 -4 0 -4 4 0 9 4 8 7 152 3 216 -1 18 -2 18 -12 1
-31 -52 -113 -174 -131 -195 -120 -145 -344 -382 -399 -423 -23 -16 -23 -16
-20 10 3 25 -22 166 -33 185 -3 5 -15 -16 -28 -47 -42 -103 -132 -229 -272
-379 -40 -42 -91 -105 -114 -138 -90 -132 -164 -328 -190 -500 l-13 -79 -40 6
c-22 3 -43 7 -46 9 -3 2 -45 6 -95 10 -171 14 -431 6 -523 -17 -25 -6 -47 -7
-51 -2 -4 5 -13 44 -20 86 -38 238 -147 464 -303 627 -128 133 -232 277 -273
379 l-23 57 -11 -42 c-18 -68 -28 -131 -25 -159 l2 -26 -26 23 c-173 154 -410
424 -493 563 -19 31 -37 56 -41 56 -4 0 -6 -52 -5 -115 1 -63 0 -115 -2 -115
-5 0 -151 106 -182 132 -15 13 -51 43 -80 68 -76 63 -205 195 -264 268 -27 34
-54 62 -58 62 -5 0 -6 -4 -2 -9 12 -20 4 -480 -10 -552 -2 -8 -6 -56 -10 -105
-3 -49 -8 -100 -10 -114 -26 -172 -27 -479 -1 -652 2 -16 3 -28 1 -28 -16 0
-352 201 -487 292 -48 32 -90 58 -93 58 -4 0 16 -43 43 -95 46 -87 141 -229
209 -314 l28 -34 -45 28 c-169 105 -291 210 -460 391 -64 69 -160 181 -200
234 -19 25 -37 47 -40 50 -34 30 -352 477 -495 697 -172 262 -297 394 -517
546 -38 26 -70 47 -73 47 -2 0 -25 13 -49 29 -117 73 -455 203 -595 227 -14 3
-42 9 -61 14 -48 12 -79 18 -195 35 -157 22 -178 24 -323 30 -133 6 -136 5
-116 -12z"/>
<path d="M9269 5973 c-1 -35 -2 -66 -3 -70 -1 -5 -6 -42 -10 -83 -5 -41 -10
-82 -11 -90 -2 -8 -6 -31 -9 -50 -5 -28 -25 -125 -31 -150 -1 -3 -5 -21 -9
-40 -60 -267 -203 -667 -321 -895 -156 -304 -388 -647 -599 -887 l-76 -88 82
31 c45 16 115 47 155 68 40 21 73 37 73 35 0 -1 -28 -45 -62 -96 -65 -97 -181
-317 -212 -403 -10 -27 -24 -63 -32 -80 -19 -44 -70 -206 -98 -315 -22 -82
-50 -231 -71 -375 -11 -74 -13 -419 -4 -510 25 -236 104 -516 204 -718 57
-116 113 -212 120 -205 2 2 -2 28 -10 58 -16 59 -41 203 -51 290 -11 101 -5
369 11 483 28 195 29 197 49 82 21 -113 62 -227 109 -306 34 -55 67 -99 77
-99 3 0 6 67 7 148 4 412 143 880 381 1285 34 59 64 107 65 107 1 0 2 -53 2
-117 0 -183 20 -293 81 -445 35 -88 93 -198 104 -198 3 0 6 17 5 38 -2 126 51
383 132 637 50 157 153 406 261 631 133 278 187 424 207 564 4 24 9 48 12 53
3 5 6 77 8 160 3 193 -17 354 -67 532 -10 39 -21 81 -24 94 -12 56 -112 319
-184 481 -47 103 -228 463 -245 486 -13 17 -15 13 -16 -43z"/>
<path d="M10119 4920 c-3 -298 -36 -549 -115 -865 -46 -182 -76 -282 -214
-700 -81 -247 -162 -513 -174 -575 -36 -180 -45 -234 -51 -285 -11 -91 -13
-287 -3 -277 4 4 17 42 29 83 52 190 182 549 255 704 15 33 62 116 103 185 41
69 114 203 163 299 86 170 88 173 89 130 6 -239 -6 -464 -31 -574 -15 -64 -11
-64 16 0 23 54 87 251 99 300 3 11 13 56 24 100 11 44 22 98 26 120 21 129 26
167 33 230 8 88 8 370 -1 450 -13 129 -42 270 -71 353 -8 23 -13 42 -11 42 11
0 -118 277 -151 325 -13 17 -14 13 -15 -45z"/>
<path d="M4785 4778 c2 -7 13 -51 24 -98 11 -47 34 -125 51 -175 17 -49 32
-94 34 -100 37 -121 204 -414 292 -510 15 -16 37 -41 48 -54 l21 -24 -75 6
c-41 4 -86 9 -100 12 -14 3 -51 10 -82 15 -32 6 -79 17 -105 25 -54 16 -61 14
-45 -18 183 -379 198 -413 260 -567 135 -338 232 -712 233 -893 l1 -61 19 24
c28 35 54 86 88 173 61 153 89 310 84 472 l-3 99 46 -73 c62 -100 142 -256
193 -376 84 -196 167 -483 186 -640 4 -27 8 -57 10 -65 8 -32 17 -180 17 -282
0 -60 4 -108 7 -108 4 0 28 30 53 67 69 103 121 248 135 377 7 67 16 58 32
-34 6 -36 13 -81 17 -100 11 -64 13 -424 3 -500 -5 -41 -19 -118 -30 -170 -26
-126 -27 -129 -34 -140 -3 -6 -2 -10 2 -10 13 0 96 142 142 241 93 202 148
403 186 676 20 141 8 461 -24 657 -61 366 -212 765 -395 1038 l-65 97 62 -32
c34 -18 82 -41 107 -51 25 -10 67 -27 93 -37 l49 -19 -21 27 c-11 16 -35 44
-52 63 -56 61 -195 238 -259 330 -19 27 -40 50 -47 50 -19 0 -252 78 -308 103
-282 124 -560 311 -759 512 -84 84 -99 96 -91 73z"/>
<path d="M6200 4480 c0 -19 -3 -105 -6 -190 -7 -177 -2 -207 53 -297 101 -164
278 -327 458 -420 84 -43 131 -61 122 -47 -6 10 -20 203 -20 281 0 32 8 67 21
94 12 24 20 44 19 44 -1 1 -29 12 -62 25 -161 63 -315 160 -420 265 -68 68
-103 124 -146 235 l-18 45 -1 -35z"/>
<path d="M8296 4483 c-4 -15 -26 -65 -48 -110 -30 -62 -56 -97 -107 -146 -112
-106 -296 -219 -428 -262 l-51 -17 23 -46 c25 -49 25 -48 10 -285 l-6 -98 33
15 c18 7 47 19 63 27 82 36 236 149 321 236 154 157 215 266 216 386 0 81 -11
320 -16 324 -2 2 -7 -9 -10 -24z"/>
<path d="M4166 4292 c-15 -24 -22 -319 -11 -452 20 -242 78 -505 165 -739 40
-111 63 -150 40 -72 -5 18 -12 60 -15 93 -4 32 -9 69 -11 81 -9 38 -12 421 -3
442 4 11 8 15 8 8 2 -32 131 -281 245 -473 128 -215 227 -464 364 -920 20 -64
20 -65 22 -25 3 58 0 206 -5 235 -2 14 -9 61 -15 105 -6 44 -16 98 -22 120 -5
22 -12 51 -15 64 -6 34 -61 237 -78 291 -8 25 -60 182 -114 350 -98 300 -143
444 -177 568 -9 34 -20 62 -24 62 -20 0 -199 130 -268 195 -44 42 -83 72 -86
67z"/>
<path d="M7005 3962 c-98 -17 -145 -77 -139 -177 1 -27 5 -92 8 -143 8 -132
14 -158 48 -191 39 -38 70 -49 135 -47 l51 2 -37 -42 c-106 -120 -70 -309 72
-379 94 -45 187 -35 272 29 43 33 85 119 86 177 2 79 -33 164 -78 192 -24 15
-5 24 44 22 55 -3 88 9 121 44 34 35 42 62 49 175 13 189 10 238 -14 272 -45
63 -70 68 -348 69 -137 1 -259 -1 -270 -3z m519 -83 c13 -6 28 -21 33 -33 9
-19 8 -142 -1 -241 -3 -22 -5 -50 -5 -62 -2 -36 -39 -63 -88 -63 -41 0 -83
-25 -83 -49 0 -6 -12 -6 -30 0 -16 6 -30 14 -30 18 0 4 13 22 28 40 22 27 40
36 87 46 59 11 60 12 61 46 1 19 4 80 7 136 5 89 4 102 -11 108 -21 8 -453 8
-473 0 -16 -6 -17 -63 -5 -217 5 -68 10 -78 35 -71 31 8 88 -16 116 -48 31
-37 31 -43 3 -56 -19 -8 -27 -5 -49 19 -22 23 -36 28 -71 28 -84 0 -93 27 -99
284 -2 74 0 81 24 102 26 22 32 22 277 23 160 0 259 -3 274 -10z m-294 -560
c11 -1 29 -1 40 -1 35 0 40 2 40 16 0 27 18 26 50 0 64 -54 80 -127 44 -202
-47 -97 -157 -127 -244 -64 -94 67 -93 206 1 270 33 23 33 23 41 2 4 -11 17
-20 28 -21z"/>
</g>
</svg>
